<svg width="563" height="880" xmlns="http://www.w3.org/2000/svg" xmlns:xlink="http://www.w3.org/1999/xlink" overflow="hidden"><defs><clipPath id="clip0"><rect x="346" y="-80" width="563" height="880"/></clipPath></defs><g clip-path="url(#clip0)" transform="translate(-346 80)"><path d="M347-79 908-79 908 799 347 799Z" fill="#F7DF1E" fill-rule="evenodd"/><path d="M741.302 692.019C752.604 710.509 767.312 724.091 793.341 724.091 815.197 724.091 829.156 713.151 829.156 698.052 829.156 679.936 814.804 673.529 790.758 663.001L777.566 657.344C739.505 641.102 714.206 620.776 714.206 577.764 714.206 538.161 744.352 508 791.469 508 825.002 508 849.122 519.69 866.506 550.282L825.432 576.696C816.394 560.454 806.626 554.066 791.488 554.066 776.032 554.066 766.245 563.882 766.245 576.696 766.245 592.544 776.05 598.951 798.674 608.768L811.866 614.425C856.682 633.665 882 653.279 882 697.396 882 744.942 844.687 771 794.594 771 745.605 771 713.944 747.621 698.469 716.991L741.302 692.019ZM554.964 696.59C563.253 711.315 570.794 723.754 588.908 723.754 606.236 723.754 617.164 716.973 617.164 690.577L617.164 510.997 669.914 510.997 669.914 691.289C669.914 745.972 637.897 770.869 591.135 770.869 548.901 770.869 524.444 748.988 512 722.63L554.964 696.59Z" fill-rule="evenodd"/></g></svg>